<svg xmlns="http://www.w3.org/2000/svg" viewBox="0 0 691.4946 261.8799"><defs><style>.cls-1{fill:#fff;}</style></defs><title>navn</title><g id="Layer_2" data-name="Layer 2"><g id="Layer_1-2" data-name="Layer 1"><path class="cls-1" d="M95.1426,69.2539a5.89,5.89,0,0,1,.7124,3.1348,8.9676,8.9676,0,0,1-1.8052,5.89,41.1283,41.1283,0,0,1-9.2148,8.5024,19.9365,19.9365,0,0,1-11.02,2.9927,16.6959,16.6959,0,0,1-10.4975-3.3252q-4.3235-3.3245-8.2173-11.4-3.1354-6.4591-4.94-9.5473a15.0566,15.0566,0,0,0-3.5625-4.4175,8.5912,8.5912,0,0,0-4.3228-1.6152q-.3809,1.995-2.1851,12.54-.7609,4.7513-.95,5.7949-.9507,5.7957-3.8,8.8828t-8.645,3.0874a17.9851,17.9851,0,0,1-11.2573-3.7524,23.9052,23.9052,0,0,1-7.5527-10.45,41.0439,41.0439,0,0,1-2.66-15.2476q0-15.96,5.5576-27.55a40.83,40.83,0,0,1,15.58-17.7177A43.4507,43.4507,0,0,1,49.4951,8.9287q9.12,0,15.2949,2.7549a19.9023,19.9023,0,0,1,9.1675,7.6A20.368,20.368,0,0,1,76.95,30.209a23.1989,23.1989,0,0,1-2.5176,10.4023A25.8878,25.8878,0,0,1,66.88,49.5889,33.8369,33.8369,0,0,1,54.625,55.3838a14.1254,14.1254,0,0,1,7.03,3.99,33.2671,33.2671,0,0,1,4.94,8.0747,30.4735,30.4735,0,0,0,5.2725,8.36,8.2126,8.2126,0,0,0,6.0322,2.66,9.5774,9.5774,0,0,0,5.7949-2.0425A45.99,45.99,0,0,0,90.63,69.4438a3.3366,3.3366,0,0,1,2.5649-1.33A2.196,2.196,0,0,1,95.1426,69.2539ZM29.165,59.374q-3.2307,0-4.4174-1.52a5.4054,5.4054,0,0,1-1.1875-3.42,4.6193,4.6193,0,0,1,1.4726-3.61,4.8856,4.8856,0,0,1,3.3721-1.33H30.78q1.5191-9.3091,2.85-16.0547,1.2333-6.1743,7.98-6.1753,5.4154,0,5.415,4.8452a10.6189,10.6189,0,0,1-.0947,1.6147l-2.85,15.77a22.8906,22.8906,0,0,0,9.3574-2.47,17.37,17.37,0,0,0,6.7451-6.08A15.9249,15.9249,0,0,0,62.7,32.1089a11.612,11.612,0,0,0-4.085-9.4053q-4.0862-3.42-11.97-3.42a28.9033,28.9033,0,0,0-16.2925,4.6074Q23.37,28.5,19.4751,37.5713q-3.8965,9.0732-3.895,22.0874a38.7414,38.7414,0,0,0,1.2348,10.45,18.0714,18.0714,0,0,0,3.04,6.5552q1.8031,2.1862,3.42,2.1845a2.3828,2.3828,0,0,0,2.0425-1.2348A11.0732,11.0732,0,0,0,26.6,73.624Z" transform="translate(-5.2251 0.001)"/><path class="cls-1" d="M130.5776,69.2539a5.89,5.89,0,0,1,.7124,3.1348,8.7381,8.7381,0,0,1-1.8046,5.89,34.7079,34.7079,0,0,1-9.9278,7.8853,27.5339,27.5339,0,0,1-13.7275,3.61q-9.9749,0-15.4849-5.415t-5.51-14.82A27.4741,27.4741,0,0,1,87.59,57.3315a22.5543,22.5543,0,0,1,7.6475-8.9775,19.2321,19.2321,0,0,1,11.0674-3.3252,12.0409,12.0409,0,0,1,8.8349,3.2774,11.9086,11.9086,0,0,1,3.3252,8.8828,15.36,15.36,0,0,1-4.7026,11.2573Q109.06,73.1491,97.85,75.9038q2.3738,4.3711,9.0249,4.37,4.2751,0,9.7378-2.9927a32.17,32.17,0,0,0,9.4526-7.8374,3.3354,3.3354,0,0,1,2.565-1.33A2.1958,2.1958,0,0,1,130.5776,69.2539Zm-31.8247-10.83a19.0417,19.0417,0,0,0-2.4228,9.88v.19a21.58,21.58,0,0,0,8.8349-3.99,7.8413,7.8413,0,0,0,3.23-6.1753,4.1334,4.1334,0,0,0-.9975-2.8974,3.4878,3.4878,0,0,0-2.7071-1.0923Q101.1741,54.3389,98.7529,58.4238Z" transform="translate(-5.2251 0.001)"/><path class="cls-1" d="M173.7075,69.4912a5.74,5.74,0,0,1,.7124,2.9927,7.2922,7.2922,0,0,1-.665,3.42,6.195,6.195,0,0,1-2.09,2.1851q-8.1715,5.5107-11.97,8.17l-6.08,4.085q-3.6115,19.6647-9.4526,30.9223t-14.8677,11.2578a10.7576,10.7576,0,0,1-7.8847-2.9927,10.5038,10.5038,0,0,1-3.04-7.8374q0-6.7463,5.32-14.4873,5.32-7.7445,19.95-19.0478l.57-3.7051a11.4682,11.4682,0,0,1-9.4048,5.32A11.5521,11.5521,0,0,1,125.4,85.499q-3.5155-4.2751-3.5146-11.21A30.8818,30.8818,0,0,1,125.4,59.8965a30.0109,30.0109,0,0,1,9.3574-10.9253,21.105,21.105,0,0,1,12.398-4.1323,3.7033,3.7033,0,0,1,2.8022.8076,6.8384,6.8384,0,0,1,1.1875,2.8974,20.5108,20.5108,0,0,1,4.18-.38,6,6,0,0,1,3.3726.7124,3.2589,3.2589,0,0,1,.997,2.8022,13.5572,13.5572,0,0,1-.0947,1.8052q-.3808,2.9459-2.375,14.915-.3808,2.28-.8076,4.9873t-.9024,5.7476q7.314-5.7,14.06-10.07a4.3122,4.3122,0,0,1,2.1851-.76A2.1835,2.1835,0,0,1,173.7075,69.4912Zm-38,48.1177q2.9926-5.7,5.7476-18.145-7.3162,6.27-10.5449,11.3051-3.2308,5.034-3.23,8.835a5.16,5.16,0,0,0,.6172,2.66,2.1851,2.1851,0,0,0,2.0424,1.0449Q132.7137,123.3086,135.7075,117.6089Zm6.6978-40.09a17.6671,17.6671,0,0,0,2.85-7.6l3.04-16.2451a11.22,11.22,0,0,0-7.22,2.9927,20.4194,20.4194,0,0,0-5.32,7.6475,25.7512,25.7512,0,0,0-1.9946,10.07,6.7216,6.7216,0,0,0,1.1875,4.37,4.0341,4.0341,0,0,0,3.2773,1.4248Q140.4092,80.1787,142.4053,77.519Z" transform="translate(-5.2251 0.001)"/><path class="cls-1" d="M170.2881,85.4038q-2.8038-4.3682-2.8027-11.59a70.8606,70.8606,0,0,1,1.0927-10.9727A102.3306,102.3306,0,0,1,171.38,50.3486a8.0518,8.0518,0,0,1,2.28-4.18,7.3033,7.3033,0,0,1,4.56-1.14q4.845,0,4.8447,3.23,0,2.376-1.8047,11.02-2.28,10.4517-2.28,14.1548a10,10,0,0,0,.76,4.37,2.6416,2.6416,0,0,0,2.565,1.52q1.7094,0,4.2749-2.375a84.8652,84.8652,0,0,0,6.84-7.5049,3.3368,3.3368,0,0,1,2.565-1.33,2.1966,2.1966,0,0,1,1.9477,1.14,5.89,5.89,0,0,1,.7124,3.1348,8.7351,8.7351,0,0,1-1.8052,5.89q-9.405,11.4961-17.5747,11.4951Q173.089,89.7739,170.2881,85.4038Zm3.7524-48.4976a6.7141,6.7141,0,0,1-1.9951-5.1772,7.0165,7.0165,0,0,1,2.6128-5.5576,9.669,9.669,0,0,1,6.5073-2.2324,8.9869,8.9869,0,0,1,5.7,1.71,5.796,5.796,0,0,1,2.1846,4.8448,7.7271,7.7271,0,0,1-2.47,6.0327,9.4053,9.4053,0,0,1-6.5552,2.2324Q176.0359,38.7588,174.0405,36.9062Z" transform="translate(-5.2251 0.001)"/><path class="cls-1" d="M235.2666,69.2539a5.89,5.89,0,0,1,.7124,3.1348,8.7376,8.7376,0,0,1-1.8047,5.89,40.3761,40.3761,0,0,1-8.93,8.2651,19.5682,19.5682,0,0,1-11.1147,3.23q-19.3806,0-19.38-27.2651,0-4.1791.2852-8.4551h-3.7051q-2.85,0-3.8477-1.0449a4.6932,4.6932,0,0,1-.997-3.3252q0-5.3188,4.2749-5.32h5.415a92.3613,92.3613,0,0,1,4.94-19.0948,43.09,43.09,0,0,1,8.0273-13.7753q4.703-5.13,10.1177-5.13a7.1093,7.1093,0,0,1,6.27,3.5151,15.9287,15.9287,0,0,1,2.28,8.835q0,14.726-12.35,25.65h10.64a3.0135,3.0135,0,0,1,2.1851.665,3.5036,3.5036,0,0,1,.665,2.47q0,6.5545-10.7348,6.5547h-11.59q-.1911,4.752-.19,7.41,0,9.8811,2.3276,13.87a7.9014,7.9014,0,0,0,7.3623,3.99,11.3359,11.3359,0,0,0,7.22-2.47,57.6012,57.6012,0,0,0,7.41-7.41,3.3352,3.3352,0,0,1,2.5649-1.33A2.1958,2.1958,0,0,1,235.2666,69.2539ZM213.5117,19.0464a50.6152,50.6152,0,0,0-3.3252,9.88,132.4166,132.4166,0,0,0-2.6123,14.0127,32.4469,32.4469,0,0,0,8.4072-10.8775,26.3878,26.3878,0,0,0,2.8028-10.9726q0-5.6046-2.09-5.605Q215.269,15.4839,213.5117,19.0464Z" transform="translate(-5.2251 0.001)"/><path class="cls-1" d="M277.6357,69.2539a5.89,5.89,0,0,1,.7124,3.1348,9.454,9.454,0,0,1-1.8051,5.89,31.9,31.9,0,0,1-11.0674,9.12,32.599,32.599,0,0,1-14.8677,3.3247,29.4613,29.4613,0,0,1-11.21-1.9472,16.6721,16.6721,0,0,1-7.267-5.32,12.3087,12.3087,0,0,1-2.5176-7.5527,15.0168,15.0168,0,0,1,5.0346-11.1147q5.0348-4.8458,14.4405-9.31l-15.58.38a3.4255,3.4255,0,0,1-3.1826-1.4727,6.39,6.39,0,0,1-1.0928-3.7524,7.4859,7.4859,0,0,1,1.0928-4.0376,3.3668,3.3668,0,0,1,2.9927-1.7573q4.3682,0,11.6845.665,1.519.096,5.5576.38t6.7925.2851a16.3247,16.3247,0,0,0,3.61-.76q.4738-.093,1.852-.4751a9.0773,9.0773,0,0,1,2.3277-.38,3.0326,3.0326,0,0,1,2.5175,1.33,6.81,6.81,0,0,1,.9976,4.085,7.2038,7.2038,0,0,1-1.4253,4.75,11.9494,11.9494,0,0,1-4.4648,3.04,71.29,71.29,0,0,0-14.3448,7.9326q-5.7,4.2283-5.7,8.4072a5.1309,5.1309,0,0,0,2.47,4.37q2.469,1.71,7.3149,1.71a24.49,24.49,0,0,0,10.7822-2.66,28.9936,28.9936,0,0,0,9.8325-8.0752,3.3369,3.3369,0,0,1,2.565-1.33A2.1965,2.1965,0,0,1,277.6357,69.2539Z" transform="translate(-5.2251 0.001)"/><path class="cls-1" d="M306.5151,72.104a5.89,5.89,0,0,1,.7124,3.1348,10.5246,10.5246,0,0,1-1.6147,5.89,18.5018,18.5018,0,0,1-6.9829,6.3648,21.8177,21.8177,0,0,1-10.3071,2.28q-9.12,0-14.1553-5.4624t-5.0352-14.7724a27.4742,27.4742,0,0,1,2.7554-12.2076,22.5535,22.5535,0,0,1,7.6475-8.9775,19.232,19.232,0,0,1,11.0673-3.3252,12.0412,12.0412,0,0,1,8.835,3.2774,11.9086,11.9086,0,0,1,3.3252,8.8828A15.36,15.36,0,0,1,298.06,68.4463q-4.7022,4.7028-16.0074,7.4575,2.28,4.3711,7.6949,4.37a10.734,10.734,0,0,0,6.4126-1.8051,31.0522,31.0522,0,0,0,5.8422-6.08,3.2689,3.2689,0,0,1,2.565-1.4248A2.196,2.196,0,0,1,306.5151,72.104ZM283.05,58.4238a19.0418,19.0418,0,0,0-2.4229,9.88v.19a21.58,21.58,0,0,0,8.835-3.99,7.8415,7.8415,0,0,0,3.23-6.1753,4.133,4.133,0,0,0-.9976-2.8974,3.4876,3.4876,0,0,0-2.707-1.0923Q285.4715,54.3389,283.05,58.4238Z" transform="translate(-5.2251 0.001)"/><path class="cls-1" d="M404.2217,47.499a31.24,31.24,0,0,1-12.16,11.02,46.6485,46.6485,0,0,1-19,5.0347l-4.0854,22.895q-2.3752,13.2035-12.92,13.2051a18.2638,18.2638,0,0,1-10.6875-3.42q-4.894-3.42-7.8374-10.45-2.9457-7.029-2.9448-17.29,0-19.284,6.2222-32.7276,6.2211-13.4414,16.72-20.14a42.1341,42.1341,0,0,1,23.1323-6.6978,33.3993,33.3993,0,0,1,15.1529,3.1353,22.2122,22.2122,0,0,1,9.4047,8.5024,23.3017,23.3017,0,0,1,3.1827,12.1123A27.5938,27.5938,0,0,1,404.2217,47.499Zm-9.9751-13.9653a13.4822,13.4822,0,0,0-4.1323-10.2124q-4.1324-3.9413-12.7774-3.9424a25.5154,25.5154,0,0,0-17.0527,6.1748q-7.267,6.1765-11.21,17.1475a73.7631,73.7631,0,0,0-3.9424,25.0327,41.5718,41.5718,0,0,0,1.1875,10.45,20.8666,20.8666,0,0,0,3.04,7.0776q1.8522,2.518,3.5625,2.5176,2.373,0,3.61-6.5552L359.667,63.269q-3.7053-.57-3.23-.4751-2.8506-.4746-3.7051-1.7578a5.7915,5.7915,0,0,1-.8549-3.2773,4.5939,4.5939,0,0,1,1.1875-3.3252,4.3341,4.3341,0,0,1,3.2773-1.2349,7.9547,7.9547,0,0,1,1.4248.0952q2.28.381,3.5151.4751,1.2334-7.4106,3.5152-19.8549a6.6263,6.6263,0,0,1,2.6123-4.6079,8.3821,8.3821,0,0,1,4.7978-1.3775q3.1349,0,4.5122,1.1875a4.7021,4.7021,0,0,1,1.3775,3.7525,13.03,13.03,0,0,1-.19,2.47l-3.1347,18.43Q394.2449,51.2994,394.2466,33.5337Z" transform="translate(-5.2251 0.001)"/><path class="cls-1" d="M465.9238,69.2539a5.8859,5.8859,0,0,1,.7119,3.1348,8.7329,8.7329,0,0,1-1.8046,5.89,50.04,50.04,0,0,1-8.9771,8.2651,17.84,17.84,0,0,1-10.4976,3.23q-4.8448,0-7.3149-2.8027-2.4718-2.8008-2.47-8.1226a59.213,59.213,0,0,1,1.33-9.5,49.2721,49.2721,0,0,0,1.2348-8.2646q0-1.5191-1.0449-1.52-1.2355,0-3.5151,3.1821a46.7889,46.7889,0,0,0-4.56,8.4077,68.2626,68.2626,0,0,0-3.7051,11.02q-1.8062,7.6018-8.93,7.6-2.85,0-3.7524-2.0425t-.9023-7.3627q0-3.0389.0947-4.8448l.0952-7.6a164.5881,164.5881,0,0,1,2.9922-30.4951q2.9926-15.8643,8.8354-26.6475Q429.586,0,437.7563-.001a8.3486,8.3486,0,0,1,7.0777,3.7525,16.2569,16.2569,0,0,1,2.7075,9.7373q0,9.5969-5.605,19.9023-5.6067,10.31-18.24,24.0825-.285,4.941-.2847,10.1651a54.5434,54.5434,0,0,1,6.9824-13.1573,27.2566,27.2566,0,0,1,7.6-7.2675,13.91,13.91,0,0,1,6.8872-2.1851q6.1744,0,6.1753,6.1748,0,3.7053-2.09,13.395-1.8054,8.2655-1.8047,10.9253,0,3.8005,2.7549,3.8,1.8992,0,4.5122-2.3276a76.2042,76.2042,0,0,0,6.9829-7.5523,3.3354,3.3354,0,0,1,2.565-1.33A2.1964,2.1964,0,0,1,465.9238,69.2539ZM431.9614,14.2964a82.7769,82.7769,0,0,0-4.0376,13.2051,176.1668,176.1668,0,0,0-3.1826,18.0971,67.94,67.94,0,0,0,9.7378-15.1049q3.8474-8.1687,3.8472-14.82a12.7536,12.7536,0,0,0-.6646-4.6548q-.6657-1.6142-1.9-1.6152Q434.0518,9.4038,431.9614,14.2964Z" transform="translate(-5.2251 0.001)"/><path class="cls-1" d="M461.6484,85.4038q-2.8037-4.3682-2.8027-11.59a70.8626,70.8626,0,0,1,1.0928-10.9727,102.3309,102.3309,0,0,1,2.8022-12.4927,8.0552,8.0552,0,0,1,2.28-4.18,7.3065,7.3065,0,0,1,4.5606-1.14q4.8456,0,4.8447,3.23,0,2.376-1.8047,11.02-2.2808,10.4517-2.28,14.1548a10,10,0,0,0,.76,4.37,2.6421,2.6421,0,0,0,2.5654,1.52q1.71,0,4.2744-2.375a84.6126,84.6126,0,0,0,6.84-7.5049,3.3375,3.3375,0,0,1,2.5654-1.33,2.1977,2.1977,0,0,1,1.9482,1.14,5.8942,5.8942,0,0,1,.712,3.1348,8.7331,8.7331,0,0,1-1.8057,5.89Q478.796,89.7749,470.626,89.7739,464.45,89.7739,461.6484,85.4038Zm3.753-48.4976a6.7126,6.7126,0,0,1-1.9956-5.1772,7.0165,7.0165,0,0,1,2.6128-5.5576,9.67,9.67,0,0,1,6.5078-2.2324,8.983,8.983,0,0,1,5.6992,1.71,5.7942,5.7942,0,0,1,2.1855,4.8448,7.7261,7.7261,0,0,1-2.4707,6.0327,9.4028,9.4028,0,0,1-6.5547,2.2324Q467.3956,38.7588,465.4014,36.9062Z" transform="translate(-5.2251 0.001)"/><path class="cls-1" d="M520.2627,69.2539a5.8948,5.8948,0,0,1,.7129,3.1348,8.7378,8.7378,0,0,1-1.8057,5.89,40.9007,40.9007,0,0,1-8.8818,8.2651,19.03,19.03,0,0,1-10.8779,3.23q-8.3614,0-12.3975-7.6-4.04-7.6-4.0371-19.665a135.07,135.07,0,0,1,2.9922-26.41,89.573,89.573,0,0,1,8.8349-25.46Q500.6446,0,508.72-.001a8.0621,8.0621,0,0,1,7.1729,4.2276q2.6118,4.2274,2.6123,12.1123,0,11.3064-6.2695,26.22A145.185,145.185,0,0,1,495.23,72.104a11.0124,11.0124,0,0,0,2.1855,5.5571,5.1449,5.1449,0,0,0,3.99,1.6626,11.0087,11.0087,0,0,0,6.84-2.2324,52.1,52.1,0,0,0,7.5049-7.6475,3.3362,3.3362,0,0,1,2.5654-1.33A2.1953,2.1953,0,0,1,520.2627,69.2539ZM501.69,17.2891a129.3506,129.3506,0,0,0-4.8457,19.57,141.569,141.569,0,0,0-2.2793,22.42A122.4585,122.4585,0,0,0,505.3,37.0015a61.0606,61.0606,0,0,0,3.99-20.3775q0-7.2187-2.66-7.22Q504.4444,9.4038,501.69,17.2891Z" transform="translate(-5.2251 0.001)"/><path class="cls-1" d="M515.9863,85.4038q-2.8037-4.3682-2.8027-11.59a70.9248,70.9248,0,0,1,1.0928-10.9727,102.05,102.05,0,0,1,2.8027-12.4927,8.0586,8.0586,0,0,1,2.2793-4.18,7.3064,7.3064,0,0,1,4.5605-1.14q4.8458,0,4.8448,3.23,0,2.376-1.8047,11.02-2.2808,10.4517-2.28,14.1548a10,10,0,0,0,.76,4.37,2.6421,2.6421,0,0,0,2.5654,1.52q1.71,0,4.2744-2.375a84.6126,84.6126,0,0,0,6.84-7.5049,3.3375,3.3375,0,0,1,2.5654-1.33,2.1978,2.1978,0,0,1,1.9482,1.14,5.8952,5.8952,0,0,1,.712,3.1348,8.7331,8.7331,0,0,1-1.8057,5.89q-9.4043,11.4961-17.5742,11.4951Q518.7881,89.7739,515.9863,85.4038Zm3.753-48.4976a6.7147,6.7147,0,0,1-1.9961-5.1772,7.0187,7.0187,0,0,1,2.6132-5.5576,9.6706,9.6706,0,0,1,6.5079-2.2324,8.9832,8.9832,0,0,1,5.6992,1.71,5.7942,5.7942,0,0,1,2.1855,4.8448,7.7261,7.7261,0,0,1-2.4707,6.0327,9.4028,9.4028,0,0,1-6.5547,2.2324Q521.7334,38.7588,519.7393,36.9062Z" transform="translate(-5.2251 0.001)"/><path class="cls-1" d="M570.8,74.5264a30.6059,30.6059,0,0,1-9.2148,10.8774,21.6448,21.6448,0,0,1-12.3028,4.37q-1.2363,18.3333-5.6054,30.6372-4.37,12.3018-12.8243,12.3028-5.13,0-7.6-3.7051t-2.4707-10.26q0-9.312,4.2754-21.7075A148.2651,148.2651,0,0,1,538.2627,69.729q0-13.87-.19-19.2852a4.8622,4.8622,0,0,1,2.1845-4.37,9.6235,9.6235,0,0,1,5.7012-1.6147,4.2842,4.2842,0,0,1,2.8965.8071,4.5041,4.5041,0,0,1,.998,3.1826q0,2.376.0948,3.5152a21.6914,21.6914,0,0,1,5.9853-5.4624,12.56,12.56,0,0,1,6.2695-1.6626,10.5814,10.5814,0,0,1,8.6934,4.2749q3.3692,4.2752,3.3721,11.21A30.4752,30.4752,0,0,1,570.8,74.5264Zm-34.9121,37.7148a232.428,232.428,0,0,0,2.1846-27.7876,139.7513,139.7513,0,0,0-6.46,18.145,56.75,56.75,0,0,0-2.375,14.5352,11.9576,11.9576,0,0,0,.7129,4.6553q.7119,1.6141,1.6621,1.6147Q534.1773,123.4038,535.8877,112.2412Zm20.1875-35.34a21.8391,21.8391,0,0,0,4.6074-7.41,25.4385,25.4385,0,0,0,1.71-9.2622,6.9714,6.9714,0,0,0-1.14-4.3228,3.6558,3.6558,0,0,0-3.041-1.4726q-3.4189,0-8.2646,7.22-.0953,4.1814-.0948,12.2549,0,4.3712-.0957,6.7451A12.5966,12.5966,0,0,0,556.0752,76.9014Z" transform="translate(-5.2251 0.001)"/><path class="cls-1" d="M589.7051,89.584a6.7046,6.7046,0,0,1-2.6123-5.13,5.8418,5.8418,0,0,1,1.8047-4.2749,7.2167,7.2167,0,0,1,5.32-1.8047,21.02,21.02,0,0,1,2.8965.2373c1.1074.1587,1.9482.27,2.5175.3325a12.2342,12.2342,0,0,0-1.0918-4.6547,23.3751,23.3751,0,0,0-2.5175-4.2276q-1.5206-2.0419-2.85-3.5625a62.2286,62.2286,0,0,1-5.8428,9.31,69.7224,69.7224,0,0,1-6.3174,7.03,5.087,5.087,0,0,1-3.61,1.71,3.1151,3.1151,0,0,1-2.47-1.0923,3.979,3.979,0,0,1-.95-2.7075,5.4234,5.4234,0,0,1,1.33-3.5151l1.2354-1.52a122.7521,122.7521,0,0,0,7.8847-10.64q1.6143-2.7538,3.8-7.3623,2.1841-4.6069,4.2744-9.5473,1.8048-4.18,7.5059-4.18a9.9834,9.9834,0,0,1,3.7051.4751,1.5863,1.5863,0,0,1,1.0449,1.52,7.01,7.01,0,0,1-.3809,1.8047,13.7238,13.7238,0,0,1-1.0449,2.47,13.55,13.55,0,0,0-1.709,5.7949,6.3214,6.3214,0,0,0,.9971,3.1348,35.5371,35.5371,0,0,0,3.0869,4.2754,60.4022,60.4022,0,0,1,4.6074,6.7925,12.3433,12.3433,0,0,1,1.5684,6.1274,25.9765,25.9765,0,0,1-.19,2.66q4.6537-1.8041,10.9248-9.5953a3.336,3.336,0,0,1,2.5654-1.33,2.1964,2.1964,0,0,1,1.9473,1.14,5.8859,5.8859,0,0,1,.7119,3.1348,9.2029,9.2029,0,0,1-1.8047,5.89Q621.29,84.17,616.97,86.3062a25.7474,25.7474,0,0,1-10.6875,2.3276,13.4925,13.4925,0,0,1-9.0254,3.23Q592.3175,91.8638,589.7051,89.584Z" transform="translate(-5.2251 0.001)"/><path class="cls-1" d="M664.4678,69.2539a5.8855,5.8855,0,0,1,.7129,3.1348,8.7381,8.7381,0,0,1-1.8047,5.89,34.7009,34.7009,0,0,1-9.9278,7.8853,27.5361,27.5361,0,0,1-13.7275,3.61q-9.9741,0-15.4853-5.415t-5.51-14.82a27.4759,27.4759,0,0,1,2.7558-12.2076,22.56,22.56,0,0,1,7.6465-8.9775,19.2352,19.2352,0,0,1,11.0684-3.3252,12.038,12.038,0,0,1,8.834,3.2774,11.9072,11.9072,0,0,1,3.3261,8.8828,15.36,15.36,0,0,1-4.7031,11.2573q-4.702,4.7028-15.9121,7.4575,2.373,4.3711,9.0244,4.37,4.2759,0,9.7373-2.9927a32.167,32.167,0,0,0,9.4532-7.8374,3.3357,3.3357,0,0,1,2.5644-1.33A2.1953,2.1953,0,0,1,664.4678,69.2539Zm-31.8242-10.83a19.0408,19.0408,0,0,0-2.4229,9.88v.19a21.5837,21.5837,0,0,0,8.835-3.99,7.842,7.842,0,0,0,3.23-6.1753,4.1337,4.1337,0,0,0-.998-2.8974,3.487,3.487,0,0,0-2.707-1.0923Q635.0654,54.3389,632.6436,58.4238Z" transform="translate(-5.2251 0.001)"/><path class="cls-1" d="M659.1475,85.9736q-1.4738-3.7983-1.4727-12.16A77.3618,77.3618,0,0,1,661.19,50.3486a7.1423,7.1423,0,0,1,2.8018-4.0371,9.88,9.88,0,0,1,5.4619-1.2827,5.3573,5.3573,0,0,1,2.66.4751,1.9627,1.9627,0,0,1,.7607,1.8047,36.26,36.26,0,0,1-1.4248,6.84q-.9522,3.8006-1.52,6.65a67.7905,67.7905,0,0,0-.95,7.03,53.9865,53.9865,0,0,1,7.03-13.3,27.5751,27.5751,0,0,1,7.6474-7.3149,13.912,13.912,0,0,1,6.8877-2.1851,5.5091,5.5091,0,0,1,6.1748,6.1748,75.2509,75.2509,0,0,1-1.0449,9.31q-.9507,5.7955-1.5195,10.9726a105.9623,105.9623,0,0,0-.57,11.5425q0,3.6115-1.4727,5.1777t-4.7969,1.5674q-3.1362,0-4.56-1.6152a7.1359,7.1359,0,0,1-1.4258-4.8447,95.3469,95.3469,0,0,1,1.33-12.54,89.3478,89.3478,0,0,0,1.1406-9.69q0-1.5191-1.0449-1.52-1.2363,0-3.4678,3.1821a50.9835,50.9835,0,0,0-4.56,8.4077,65.374,65.374,0,0,0-3.7529,11.02q-1.046,4.4664-2.4228,6.0327a5.465,5.465,0,0,1-4.3223,1.5674Q660.6187,89.7739,659.1475,85.9736Z" transform="translate(-5.2251 0.001)"/><path class="cls-1" d="M44.8872,226.4248q-1.2165-1.2538-1.2158-4.75a47.1765,47.1765,0,0,1,.4936-6.042q.4937-3.6855,1.6343-10.146,1.9753-11.9311,3.1157-20.6719a75.89,75.89,0,0,0,.6841-9.12q0-3.42-2.5078-3.42a8.6393,8.6393,0,0,0-4.75,2.0142,31.4489,31.4489,0,0,0-6.1182,6.4218,2.9712,2.9712,0,0,1-2.3559,1.4439,2.3194,2.3194,0,0,1-1.8618-1.0259,3.6751,3.6751,0,0,1-.7984-2.3179,6.6949,6.6949,0,0,1,.4942-2.47,13.752,13.752,0,0,1,1.6338-2.85,28.72,28.72,0,0,1,8.1323-7.8657,16.9259,16.9259,0,0,1,8.9678-2.7744,7.9339,7.9339,0,0,1,6.4223,2.66q2.2406,2.6617,2.2417,7.752a36.2475,36.2475,0,0,1-.38,4.8262q-.3816,2.7751-.684,4.5219-.3048,1.7492-.4561,2.4322,4.3323-12.3867,9.728-17.29a17.2686,17.2686,0,0,1,11.856-4.9023,9.5142,9.5142,0,0,1,7.79,3.4961q2.85,3.4965,2.85,9.88a35.5909,35.5909,0,0,1-.6841,6.2319q3.8-10.4883,8.8921-15.0484a17.03,17.03,0,0,1,11.7041-4.56q5.3189,0,8.17,3.42t2.85,9.5757a41.3611,41.3611,0,0,1-.9883,8.1323l-4.6358,21.7358a34.0329,34.0329,0,0,0-.76,6.5362,6.82,6.82,0,0,0,1.4819,4.7881,5.3748,5.3748,0,0,0,4.1421,1.5957,8.4673,8.4673,0,0,0,4.9019-1.6719,32.1406,32.1406,0,0,0,5.6621-5.5479,2.6694,2.6694,0,0,1,2.0522-1.0644,1.7581,1.7581,0,0,1,1.5581.9121,4.7154,4.7154,0,0,1,.57,2.5078,7.1722,7.1722,0,0,1-1.4438,4.7119,29.3751,29.3751,0,0,1-7.8281,6.9922,16.2032,16.2032,0,0,1-8.1319,2.2041q-6.4606,0-10.1084-3.8379t-3.6479-10.2978a67.4268,67.4268,0,0,1,1.8242-12.9961l3.04-13.9082q.1509-.6841.5318-2.4317.3794-1.7475.6079-3.3061a21.1814,21.1814,0,0,0,.228-3.0781,6.4749,6.4749,0,0,0-1.0259-3.99,3.4792,3.4792,0,0,0-2.9257-1.33q-3.5736,0-7.4864,4.5977-3.9147,4.6-7.4477,15.2383-3.534,10.6413-5.7383,27.664-.5325,4.56-1.8618,6.1182a5.3552,5.3552,0,0,1-4.294,1.5576,5.0487,5.0487,0,0,1-3.7622-1.2158q-1.1791-1.2144-1.1777-4.5606a52.3689,52.3689,0,0,1,.8359-8.17q.8358-5.0529,2.128-11.8935,3.495-18.3912,3.496-23.7119a6.7455,6.7455,0,0,0-1.102-4.2564,3.9938,3.9938,0,0,0-3.3062-1.3677q-3.7244,0-7.6757,4.2178-3.953,4.218-7.7139,14.9722-3.7625,10.7548-6.27,29.07a13.6477,13.6477,0,0,1-1.5581,5.3965q-1.0261,1.5206-3.99,1.5195A5.439,5.439,0,0,1,44.8872,226.4248Z" transform="translate(-5.2251 0.001)"/><path class="cls-1" d="M130.729,224.5244a13.5705,13.5705,0,0,1-2.166-7.8652,66.2939,66.2939,0,0,1,.76-10.45,65.46,65.46,0,0,1,2.5079-10.07,6.3541,6.3541,0,0,1,2.1279-3.2681,7.4993,7.4993,0,0,1,4.332-.9878,3.7578,3.7578,0,0,1,2.3179.5322,1.9493,1.9493,0,0,1,.646,1.5957,31.5026,31.5026,0,0,1-.836,4.104q-.76,2.8125-1.2158,5.0923a71.78,71.78,0,0,0-1.52,10.64,4.73,4.73,0,0,0,.38,2.2422,1.3034,1.3034,0,0,0,1.2158.6455q1.14,0,2.85-2.2793a33.4893,33.4893,0,0,0,3.648-6.916,92.3649,92.3649,0,0,0,3.7622-11.4,4.9341,4.9341,0,0,1,5.624-4.2559,5.03,5.03,0,0,1,2.4321.418,1.6766,1.6766,0,0,1,.6836,1.5581q0,1.9006-1.9,10.4121Q154.2506,214,154.251,216.2793a3.6225,3.6225,0,0,0,.6079,2.2412,1.911,1.911,0,0,0,1.5962.7979,5.9344,5.9344,0,0,0,3.61-1.8614,61.012,61.012,0,0,0,5.586-6.042,2.67,2.67,0,0,1,2.0522-1.0644,1.758,1.758,0,0,1,1.5581.9121,4.7153,4.7153,0,0,1,.57,2.5078,6.9881,6.9881,0,0,1-1.4439,4.7119,33.5873,33.5873,0,0,1-7.03,6.6123,14.7345,14.7345,0,0,1-8.55,2.584,5.8166,5.8166,0,0,1-5.3579-2.8115q-1.71-2.811-1.71-7.9043a17.8175,17.8175,0,0,1-3.876,7.9424,7.5528,7.5528,0,0,1-5.5484,2.7734A6.53,6.53,0,0,1,130.729,224.5244Z" transform="translate(-5.2251 0.001)"/><path class="cls-1" d="M194.0356,211.2627a4.71,4.71,0,0,1,.57,2.5078,6.9907,6.9907,0,0,1-1.4439,4.7119,32.7191,32.7191,0,0,1-7.1064,6.6123,15.2164,15.2164,0,0,1-8.7017,2.584,10.55,10.55,0,0,1-9.918-6.08q-3.2315-6.0791-3.23-15.7319a108.0478,108.0478,0,0,1,2.394-21.1279,71.6837,71.6837,0,0,1,7.0679-20.3682q4.6736-8.5107,11.1338-8.5117a6.4486,6.4486,0,0,1,5.7382,3.3818q2.0889,3.3831,2.09,9.69,0,9.0453-5.0161,20.976A116.1474,116.1474,0,0,1,174.01,213.543a8.81,8.81,0,0,0,1.748,4.4463,4.1181,4.1181,0,0,0,3.1919,1.3291,8.81,8.81,0,0,0,5.4722-1.7852,41.755,41.755,0,0,0,6.0039-6.1182,2.6694,2.6694,0,0,1,2.0522-1.0644A1.7567,1.7567,0,0,1,194.0356,211.2627Zm-14.8579-41.5718a103.4662,103.4662,0,0,0-3.8759,15.6558,113.2376,113.2376,0,0,0-1.8238,17.936,97.9434,97.9434,0,0,0,8.5879-17.8218,48.8546,48.8546,0,0,0,3.1919-16.3022q0-5.7744-2.1279-5.7759Q181.3809,163.3828,179.1777,169.6909Z" transform="translate(-5.2251 0.001)"/><path class="cls-1" d="M223.9033,211.2627a4.7154,4.7154,0,0,1,.57,2.5078,6.9881,6.9881,0,0,1-1.4438,4.7119,32.2942,32.2942,0,0,1-7.144,6.6123,15.65,15.65,0,0,1-8.8921,2.584q-15.504,0-15.5039-21.812,0-3.3435.228-6.7637h-2.9639a4.2562,4.2562,0,0,1-3.0781-.8364,3.75,3.75,0,0,1-.7979-2.66q0-4.2553,3.42-4.2563h4.332a73.9044,73.9044,0,0,1,3.9517-15.2759,34.4629,34.4629,0,0,1,6.4223-11.02q3.7617-4.1038,8.0938-4.104a5.6878,5.6878,0,0,1,5.0161,2.812,12.7453,12.7453,0,0,1,1.8242,7.0684q0,11.781-9.88,20.5195h8.5122a2.4106,2.4106,0,0,1,1.7481.5322,2.8026,2.8026,0,0,1,.5317,1.9761q0,5.2441-8.5879,5.2441h-9.2719q-.1531,3.8005-.1519,5.9278,0,7.905,1.8618,11.0962a6.3211,6.3211,0,0,0,5.89,3.1914,9.0667,9.0667,0,0,0,5.7758-1.9756,46.0632,46.0632,0,0,0,5.9283-5.9278,2.6691,2.6691,0,0,1,2.0517-1.0644A1.7576,1.7576,0,0,1,223.9033,211.2627ZM206.5,171.0967a40.4788,40.4788,0,0,0-2.66,7.9043,105.8252,105.8252,0,0,0-2.09,11.21,25.9593,25.9593,0,0,0,6.7256-8.7021,21.11,21.11,0,0,0,2.2422-8.7778q0-4.4839-1.6719-4.4839Q207.9051,168.2471,206.5,171.0967Z" transform="translate(-5.2251 0.001)"/><path class="cls-1" d="M220.4824,224.1826q-2.2426-3.4952-2.2422-9.2715a56.6985,56.6985,0,0,1,.8741-8.7783,81.8545,81.8545,0,0,1,2.2421-9.9941,6.44,6.44,0,0,1,1.8243-3.3438,5.8432,5.8432,0,0,1,3.6479-.9121q3.876,0,3.876,2.584a59.6888,59.6888,0,0,1-1.4443,8.8159q-1.8239,8.3613-1.8238,11.3237a7.9992,7.9992,0,0,0,.6079,3.4961,2.1132,2.1132,0,0,0,2.0523,1.2159q1.3674,0,3.42-1.8995a67.9725,67.9725,0,0,0,5.4717-6.0039,2.67,2.67,0,0,1,2.0522-1.0644,1.758,1.758,0,0,1,1.5581.9121,4.7153,4.7153,0,0,1,.57,2.5078,6.9881,6.9881,0,0,1-1.4439,4.7119q-7.5242,9.1978-14.06,9.1963Q222.7229,227.6787,220.4824,224.1826Zm3.002-38.7978a5.3712,5.3712,0,0,1-1.5957-4.1421,5.6125,5.6125,0,0,1,2.09-4.4458,7.7353,7.7353,0,0,1,5.2061-1.7862,7.19,7.19,0,0,1,4.56,1.3682,4.6381,4.6381,0,0,1,1.7481,3.876,6.1826,6.1826,0,0,1-1.9761,4.8262,7.5248,7.5248,0,0,1-5.2441,1.7856A6.8165,6.8165,0,0,1,223.4844,185.3848Z" transform="translate(-5.2251 0.001)"/><path class="cls-1" d="M238.3413,224.6387q-1.1791-3.0381-1.1782-9.7276a61.8892,61.8892,0,0,1,2.812-18.7724,5.7181,5.7181,0,0,1,2.2422-3.23,7.9049,7.9049,0,0,1,4.37-1.0259,4.2909,4.2909,0,0,1,2.1279.38,1.5724,1.5724,0,0,1,.6079,1.4443,28.9351,28.9351,0,0,1-1.14,5.4717q-.76,3.0411-1.2158,5.2822a52.4075,52.4075,0,0,0-.76,5.586,41.1234,41.1234,0,0,1,4.9019-10.0323,23.0757,23.0757,0,0,1,5.852-6.1176,10.2878,10.2878,0,0,1,5.6616-2.0142,4.9011,4.9011,0,0,1,3.7623,1.2158,5.4118,5.4118,0,0,1,1.102,3.7242,48.2,48.2,0,0,1-1.4438,8.8159q-.6094,2.7363-.836,4.104,3.7991-9.348,8.4356-13.604t8.664-4.2559q4.94,0,4.94,4.94a61.1712,61.1712,0,0,1-1.6719,10.7163,52.7207,52.7207,0,0,0-1.4439,8.74q0,3.04,2.2041,3.0391a5.9346,5.9346,0,0,0,3.61-1.8614,61.0014,61.0014,0,0,0,5.5859-6.042,2.67,2.67,0,0,1,2.0523-1.0644,1.7568,1.7568,0,0,1,1.5576.9121,4.71,4.71,0,0,1,.57,2.5078,6.9882,6.9882,0,0,1-1.4443,4.7119,33.5853,33.5853,0,0,1-7.03,6.6123,14.7345,14.7345,0,0,1-8.55,2.584,7.3867,7.3867,0,0,1-5.8521-2.2422q-1.9774-2.24-1.976-6.498a47.3891,47.3891,0,0,1,1.0639-7.6,39.4176,39.4176,0,0,0,.9878-6.6118q0-1.2151-.8359-1.2164-.9888,0-2.812,2.5459a37.4231,37.4231,0,0,0-3.648,6.7261,54.639,54.639,0,0,0-2.9638,8.8159q-.8372,3.6489-1.938,4.8643a4.56,4.56,0,0,1-3.5342,1.2158,4.026,4.026,0,0,1-3.7617-2.3935,12.3976,12.3976,0,0,1-1.2544-5.8145,65.6729,65.6729,0,0,1,.76-8.36q.6072-4.8626.6079-6.3837,0-1.2151-.8359-1.2164-1.14,0-2.8882,2.7364a39.2043,39.2043,0,0,0-3.3818,6.9912,67.0706,67.0706,0,0,0-2.6221,8.36,11.8707,11.8707,0,0,1-1.938,4.8262,4.3739,4.3739,0,0,1-3.458,1.2539A4.15,4.15,0,0,1,238.3413,224.6387Z" transform="translate(-5.2251 0.001)"/><path class="cls-1" d="M329.0088,211.2627a4.7154,4.7154,0,0,1,.57,2.5078,6.9881,6.9881,0,0,1-1.4438,4.7119,27.7569,27.7569,0,0,1-7.9419,6.3086,22.0274,22.0274,0,0,1-10.982,2.8877q-7.98,0-12.3881-4.332t-4.4082-11.856a21.98,21.98,0,0,1,2.2041-9.7661,18.047,18.047,0,0,1,6.1181-7.1816,15.3855,15.3855,0,0,1,8.854-2.66,9.6321,9.6321,0,0,1,7.0679,2.6221,9.5273,9.5273,0,0,1,2.66,7.1059,12.2857,12.2857,0,0,1-3.7622,9.0059q-3.7617,3.7624-12.73,5.9663,1.8992,3.4966,7.22,3.4961a16.6187,16.6187,0,0,0,7.79-2.3945,25.7362,25.7362,0,0,0,7.562-6.27,2.6693,2.6693,0,0,1,2.0518-1.0644A1.7576,1.7576,0,0,1,329.0088,211.2627Zm-25.46-8.6641a15.237,15.237,0,0,0-1.938,7.9043v.1519a17.2683,17.2683,0,0,0,7.0679-3.1919,6.2738,6.2738,0,0,0,2.584-4.94,3.3087,3.3087,0,0,0-.7979-2.3183,2.7912,2.7912,0,0,0-2.166-.8735Q305.4863,199.3311,303.5488,202.5986Z" transform="translate(-5.2251 0.001)"/><path class="cls-1" d="M367.7686,211.2627a4.7163,4.7163,0,0,1,.57,2.5078,6.9881,6.9881,0,0,1-1.4439,4.7119,36.6835,36.6835,0,0,1-6.84,6.4981,12.5487,12.5487,0,0,1-7.3721,2.6982q-5.7766,0-8.8159-6.7637a21.8323,21.8323,0,0,1-5.5859,5.3955,11.0631,11.0631,0,0,1-5.5865,1.3682,9.664,9.664,0,0,1-7.6377-3.458,13.237,13.237,0,0,1-3.0019-9.0059,25.03,25.03,0,0,1,2.584-11.2861,23.0494,23.0494,0,0,1,7.1059-8.5117,20.66,20.66,0,0,1,10.146-3.9141,95.5262,95.5262,0,0,1,5.51-25.1943q4.065-10.4487,10.6782-10.45a6.5063,6.5063,0,0,1,5.4341,2.9639q2.1657,2.964,2.166,8.9682,0,8.5122-4.18,19.9116a147.99,147.99,0,0,1-11.1718,23.4082,16.5722,16.5722,0,0,0,1.33,6.3081,3.0077,3.0077,0,0,0,2.6216,1.8995,6.496,6.496,0,0,0,4.18-1.8233,55.5472,55.5472,0,0,0,5.7-6.08,2.6693,2.6693,0,0,1,2.0517-1.0644A1.7576,1.7576,0,0,1,367.7686,211.2627Zm-29.5259,7.5625a22.3319,22.3319,0,0,0,3.6479-4.37,50.6778,50.6778,0,0,1-.76-9.1963q0-1.8237.1523-5.9277a12.7328,12.7328,0,0,0-6.9541,5.5859,17.2032,17.2032,0,0,0-2.7739,9.5381q0,5.5488,3.8,5.5478A4.5734,4.5734,0,0,0,338.2427,218.8252Zm16.1118-50.3882a93.5979,93.5979,0,0,0-2.47,13.4136q-1.0261,8.2851-1.4825,17.3281,8.5108-18.5427,8.5123-29.792a15.8791,15.8791,0,0,0-.4942-4.4839q-.4951-1.5959-1.1777-1.5962Q355.7976,163.3066,354.3545,168.437Z" transform="translate(-5.2251 0.001)"/><path class="cls-1" d="M364.3486,224.1826q-2.2426-3.4952-2.2422-9.2715a56.711,56.711,0,0,1,.8741-8.7783,81.8355,81.8355,0,0,1,2.2422-9.9941,6.4394,6.4394,0,0,1,1.8242-3.3438,5.8434,5.8434,0,0,1,3.6479-.9121q3.876,0,3.876,2.584a59.6888,59.6888,0,0,1-1.4443,8.8159q-1.8239,8.3613-1.8238,11.3237a7.9992,7.9992,0,0,0,.6079,3.4961,2.1132,2.1132,0,0,0,2.0523,1.2159q1.3674,0,3.42-1.8995a67.9725,67.9725,0,0,0,5.4717-6.0039,2.67,2.67,0,0,1,2.0522-1.0644,1.7579,1.7579,0,0,1,1.5581.9121,4.7153,4.7153,0,0,1,.57,2.5078,6.9881,6.9881,0,0,1-1.4439,4.7119q-7.5242,9.1978-14.06,9.1963Q366.5891,227.6787,364.3486,224.1826Zm3.002-38.7978a5.3712,5.3712,0,0,1-1.5957-4.1421,5.6125,5.6125,0,0,1,2.09-4.4458,7.7355,7.7355,0,0,1,5.2061-1.7862,7.19,7.19,0,0,1,4.56,1.3682,4.6381,4.6381,0,0,1,1.7481,3.876,6.1826,6.1826,0,0,1-1.9761,4.8262,7.5247,7.5247,0,0,1-5.2441,1.7856A6.8166,6.8166,0,0,1,367.3506,185.3848Z" transform="translate(-5.2251 0.001)"/><path class="cls-1" d="M416.3315,211.2627a4.7153,4.7153,0,0,1,.57,2.5078,6.9881,6.9881,0,0,1-1.4439,4.7119,27.7569,27.7569,0,0,1-7.9419,6.3086,22.0267,22.0267,0,0,1-10.9819,2.8877q-7.98,0-12.3882-4.332t-4.4082-11.856a21.9818,21.9818,0,0,1,2.2041-9.7661,18.0464,18.0464,0,0,1,6.1182-7.1816,15.3853,15.3853,0,0,1,8.854-2.66,9.6318,9.6318,0,0,1,7.0678,2.6221,9.5269,9.5269,0,0,1,2.66,7.1059,12.2857,12.2857,0,0,1-3.7622,9.0059q-3.7617,3.7624-12.73,5.9663,1.8991,3.4966,7.22,3.4961a16.6193,16.6193,0,0,0,7.79-2.3945,25.7362,25.7362,0,0,0,7.562-6.27,2.6693,2.6693,0,0,1,2.0517-1.0644A1.7573,1.7573,0,0,1,416.3315,211.2627Zm-25.46-8.6641a15.237,15.237,0,0,0-1.938,7.9043v.1519a17.2689,17.2689,0,0,0,7.0679-3.1919,6.274,6.274,0,0,0,2.5839-4.94,3.3091,3.3091,0,0,0-.7978-2.3183,2.7912,2.7912,0,0,0-2.166-.8735Q392.8091,199.3311,390.8716,202.5986Z" transform="translate(-5.2251 0.001)"/><path class="cls-1" d="M455.0918,211.2627a4.7154,4.7154,0,0,1,.57,2.5078,6.9881,6.9881,0,0,1-1.4438,4.7119,36.684,36.684,0,0,1-6.84,6.4981,12.5485,12.5485,0,0,1-7.372,2.6982q-5.7766,0-8.816-6.7637a21.8323,21.8323,0,0,1-5.5859,5.3955,11.063,11.063,0,0,1-5.5864,1.3682,9.664,9.664,0,0,1-7.6377-3.458,13.2365,13.2365,0,0,1-3.002-9.0059,25.0314,25.0314,0,0,1,2.584-11.2861,23.0487,23.0487,0,0,1,7.106-8.5117,20.6592,20.6592,0,0,1,10.146-3.9141,95.5264,95.5264,0,0,1,5.51-25.1943q4.065-10.4487,10.6783-10.45a6.5061,6.5061,0,0,1,5.434,2.9639q2.1659,2.964,2.1661,8.9682,0,8.5122-4.18,19.9116A147.9906,147.9906,0,0,1,437.65,211.1108a16.5718,16.5718,0,0,0,1.33,6.3081,3.0076,3.0076,0,0,0,2.6216,1.8995,6.496,6.496,0,0,0,4.18-1.8233,55.5472,55.5472,0,0,0,5.7-6.08,2.6693,2.6693,0,0,1,2.0518-1.0644A1.7576,1.7576,0,0,1,455.0918,211.2627Zm-29.5259,7.5625a22.3316,22.3316,0,0,0,3.648-4.37,50.6683,50.6683,0,0,1-.76-9.1963q0-1.8237.1524-5.9277a12.7325,12.7325,0,0,0-6.9541,5.5859,17.2033,17.2033,0,0,0-2.774,9.5381q0,5.5488,3.8,5.5478A4.5734,4.5734,0,0,0,425.5659,218.8252Zm16.1118-50.3882a93.5979,93.5979,0,0,0-2.47,13.4136q-1.0261,8.2851-1.4824,17.3281,8.5107-18.5427,8.5122-29.792a15.88,15.88,0,0,0-.4941-4.4839q-.4952-1.5959-1.1778-1.5962Q443.1208,163.3066,441.6777,168.437Z" transform="translate(-5.2251 0.001)"/><path class="cls-1" d="M484.96,211.2627a4.725,4.725,0,0,1,.5693,2.5078,6.983,6.983,0,0,1-1.4443,4.7119,27.7541,27.7541,0,0,1-7.9414,6.3086,22.0279,22.0279,0,0,1-10.9825,2.8877q-7.98,0-12.3877-4.332t-4.4082-11.856a21.9818,21.9818,0,0,1,2.2041-9.7661,18.0472,18.0472,0,0,1,6.1182-7.1816,15.386,15.386,0,0,1,8.8545-2.66,9.6324,9.6324,0,0,1,7.0674,2.6221,9.5292,9.5292,0,0,1,2.66,7.1059,12.2843,12.2843,0,0,1-3.7627,9.0059q-3.7617,3.7624-12.7295,5.9663,1.8993,3.4966,7.22,3.4961a16.6211,16.6211,0,0,0,7.791-2.3945,25.7343,25.7343,0,0,0,7.5615-6.27,2.67,2.67,0,0,1,2.0518-1.0644A1.7589,1.7589,0,0,1,484.96,211.2627Zm-25.46-8.6641a15.237,15.237,0,0,0-1.938,7.9043v.1519a17.2743,17.2743,0,0,0,7.0684-3.1919,6.2767,6.2767,0,0,0,2.584-4.94,3.3069,3.3069,0,0,0-.7989-2.3183,2.7894,2.7894,0,0,0-2.1655-.8735Q461.437,199.3311,459.5,202.5986Z" transform="translate(-5.2251 0.001)"/><path class="cls-1" d="M487.4668,227.5264a5.3646,5.3646,0,0,1-2.0908-4.1035,4.6712,4.6712,0,0,1,1.4453-3.42,5.77,5.77,0,0,1,4.2558-1.4443,16.8078,16.8078,0,0,1,2.3174.19q1.3287.1905,2.0147.2656a9.8074,9.8074,0,0,0-.875-3.7236,18.6137,18.6137,0,0,0-2.0137-3.3823q-1.2158-1.6334-2.2793-2.85a49.7593,49.7593,0,0,1-4.6748,7.4482,55.7713,55.7713,0,0,1-5.0537,5.6241,4.0691,4.0691,0,0,1-2.8887,1.3681,2.4926,2.4926,0,0,1-1.9756-.874,3.1848,3.1848,0,0,1-.76-2.166,4.3387,4.3387,0,0,1,1.0634-2.8125l.9883-1.2158a98.361,98.361,0,0,0,6.3086-8.5118q1.2906-2.2038,3.0391-5.89t3.42-7.6382q1.4443-3.3427,6.0039-3.3437a7.9923,7.9923,0,0,1,2.9649.38,1.2692,1.2692,0,0,1,.8359,1.2163,5.5819,5.5819,0,0,1-.3047,1.4438,10.9964,10.9964,0,0,1-.8359,1.9761,10.834,10.834,0,0,0-1.3672,4.6357,5.0575,5.0575,0,0,0,.7978,2.5083,28.4617,28.4617,0,0,0,2.47,3.42,48.3281,48.3281,0,0,1,3.6855,5.434,9.8735,9.8735,0,0,1,1.2539,4.9019,20.7626,20.7626,0,0,1-.1514,2.1279q3.7222-1.4429,8.74-7.6758a2.67,2.67,0,0,1,2.0517-1.0644,1.7588,1.7588,0,0,1,1.5586.9121,4.7249,4.7249,0,0,1,.5694,2.5078,7.358,7.358,0,0,1-1.4444,4.7119,23.179,23.179,0,0,1-7.2578,6.4229,20.6012,20.6012,0,0,1-8.55,1.8613,10.7944,10.7944,0,0,1-7.22,2.584A8.918,8.918,0,0,1,487.4668,227.5264Z" transform="translate(-5.2251 0.001)"/><path class="cls-1" d="M513.9893,224.1826a16.972,16.972,0,0,1-2.2422-9.2715,56.6048,56.6048,0,0,1,.875-8.7783,81.8355,81.8355,0,0,1,2.2422-9.9941,6.4289,6.4289,0,0,1,1.8242-3.3438,5.8407,5.8407,0,0,1,3.6474-.9121q3.876,0,3.876,2.584a59.6888,59.6888,0,0,1-1.4443,8.8159q-1.8237,8.3613-1.8233,11.3237a7.9984,7.9984,0,0,0,.6075,3.4961,2.1129,2.1129,0,0,0,2.0527,1.2159q1.3666,0,3.42-1.8995a67.9941,67.9941,0,0,0,5.4707-6.0039,2.6734,2.6734,0,0,1,2.0528-1.0644,1.7586,1.7586,0,0,1,1.5585.9121,4.724,4.724,0,0,1,.5694,2.5078,6.983,6.983,0,0,1-1.4444,4.7119q-7.5234,9.1978-14.0595,9.1963Q516.2309,227.6787,513.9893,224.1826Zm3.0019-38.7978a5.373,5.373,0,0,1-1.5957-4.1421,5.6139,5.6139,0,0,1,2.09-4.4458,7.7386,7.7386,0,0,1,5.207-1.7862,7.1906,7.1906,0,0,1,4.56,1.3682,4.637,4.637,0,0,1,1.748,3.876,6.1839,6.1839,0,0,1-1.9756,4.8262,7.5247,7.5247,0,0,1-5.2441,1.7856A6.8187,6.8187,0,0,1,516.9912,185.3848Z" transform="translate(-5.2251 0.001)"/><path class="cls-1" d="M570.9893,211.4526a4.6038,4.6038,0,0,1,.5693,2.3941,5.8415,5.8415,0,0,1-.5322,2.7363,4.96,4.96,0,0,1-1.6719,1.7481q-6.5361,4.4076-9.5762,6.5361l-4.8633,3.2676q-2.89,15.7323-7.5625,24.7382t-11.8945,9.0059a8.6045,8.6045,0,0,1-6.3076-2.3945,8.4022,8.4022,0,0,1-2.4316-6.27q0-5.3964,4.2558-11.59t15.96-15.2383l.456-2.9638a9.1723,9.1723,0,0,1-7.5244,4.2558,9.2379,9.2379,0,0,1-7.5234-3.42,13.6659,13.6659,0,0,1-2.8125-8.9678,24.7055,24.7055,0,0,1,2.8125-11.5141,23.9835,23.9835,0,0,1,7.4863-8.74,16.8829,16.8829,0,0,1,9.918-3.3056,2.9652,2.9652,0,0,1,2.2422.646,5.4892,5.4892,0,0,1,.9492,2.3178,16.43,16.43,0,0,1,3.3437-.3042,4.8032,4.8032,0,0,1,2.6983.57,2.6062,2.6062,0,0,1,.7978,2.2417,10.7016,10.7016,0,0,1-.0762,1.4444q-.3046,2.3562-1.8994,11.9316-.3046,1.8245-.6455,3.99-.3427,2.1664-.7226,4.5986,5.8506-4.56,11.248-8.0562a3.4518,3.4518,0,0,1,1.7481-.6079A1.7482,1.7482,0,0,1,570.9893,211.4526Zm-30.4,38.4947q2.3936-4.56,4.5976-14.5166a44.0874,44.0874,0,0,0-8.4355,9.0439q-2.5856,4.0284-2.584,7.0684a4.1327,4.1327,0,0,0,.4941,2.1279,1.7464,1.7464,0,0,0,1.6328.8359Q538.1938,254.5068,540.5889,249.9473Zm5.3574-32.0723a14.13,14.13,0,0,0,2.28-6.08l2.4326-12.9961a8.9775,8.9775,0,0,0-5.7764,2.3941,16.3373,16.3373,0,0,0-4.2568,6.1181,20.6027,20.6027,0,0,0-1.5957,8.0562,5.3836,5.3836,0,0,0,.95,3.4961,3.229,3.229,0,0,0,2.622,1.14Q544.35,220.0029,545.9463,217.875Z" transform="translate(-5.2251 0.001)"/><path class="cls-1" d="M567.417,224.6387q-1.1792-3.0381-1.1777-9.7276a61.8891,61.8891,0,0,1,2.8115-18.7724,5.7176,5.7176,0,0,1,2.2422-3.23,7.9049,7.9049,0,0,1,4.37-1.0259,4.2909,4.2909,0,0,1,2.1279.38,1.5715,1.5715,0,0,1,.6084,1.4443,28.9954,28.9954,0,0,1-1.1406,5.4717q-.76,3.0411-1.2158,5.32a54.4926,54.4926,0,0,0-.76,5.624,43.19,43.19,0,0,1,5.624-10.64,22.0411,22.0411,0,0,1,6.1172-5.852,11.13,11.13,0,0,1,5.5108-1.7481q4.9393,0,4.94,4.94a61.1537,61.1537,0,0,1-1.6729,10.7163,52.7372,52.7372,0,0,0-1.4443,8.74q0,3.04,2.2051,3.0391a5.9375,5.9375,0,0,0,3.6094-1.8614,61.0874,61.0874,0,0,0,5.5859-6.042,2.67,2.67,0,0,1,2.0527-1.0644,1.7571,1.7571,0,0,1,1.5576.9121,4.7156,4.7156,0,0,1,.5694,2.5078,6.988,6.988,0,0,1-1.4434,4.7119,33.5873,33.5873,0,0,1-7.03,6.6123,14.7356,14.7356,0,0,1-8.55,2.584,7.3848,7.3848,0,0,1-5.8515-2.2422q-1.9776-2.24-1.9766-6.498a47.2809,47.2809,0,0,1,1.0645-7.6,39.3881,39.3881,0,0,0,.9882-6.6118q0-1.2151-.8369-1.2164-.9887,0-2.7744,2.5459a40.91,40.91,0,0,0-3.6474,6.7261,52.3577,52.3577,0,0,0-3.002,8.8159,11.8554,11.8554,0,0,1-1.9385,4.8262,4.3717,4.3717,0,0,1-3.457,1.2539A4.1508,4.1508,0,0,1,567.417,224.6387Z" transform="translate(-5.2251 0.001)"/><path class="cls-1" d="M639.2354,211.2627a4.7068,4.7068,0,0,1,.57,2.5078,6.9932,6.9932,0,0,1-1.4434,4.7119,27.76,27.76,0,0,1-7.9424,6.3086,22.0263,22.0263,0,0,1-10.9814,2.8877q-7.98,0-12.3887-4.332t-4.4082-11.856a21.9885,21.9885,0,0,1,2.2041-9.7661,18.05,18.05,0,0,1,6.1182-7.1816,15.3858,15.3858,0,0,1,8.8535-2.66,9.6314,9.6314,0,0,1,7.0683,2.6221,9.525,9.525,0,0,1,2.66,7.1059,12.2872,12.2872,0,0,1-3.7617,9.0059q-3.7617,3.7624-12.7305,5.9663,1.8984,3.4966,7.2207,3.4961a16.6175,16.6175,0,0,0,7.7891-2.3945,25.7382,25.7382,0,0,0,7.5625-6.27,2.6685,2.6685,0,0,1,2.0517-1.0644A1.7564,1.7564,0,0,1,639.2354,211.2627Zm-25.459-8.6641a15.2275,15.2275,0,0,0-1.9385,7.9043v.1519a17.261,17.261,0,0,0,7.0674-3.1919,6.2712,6.2712,0,0,0,2.584-4.94,3.311,3.311,0,0,0-.7969-2.3183,2.7927,2.7927,0,0,0-2.166-.8735Q615.7139,199.3311,613.7764,202.5986Z" transform="translate(-5.2251 0.001)"/><path class="cls-1" d="M667.2031,203.4727a3.979,3.979,0,0,1,1.1778,2.9262,5.7392,5.7392,0,0,1-.4561,2.128,12.8462,12.8462,0,0,1-3.42,4.7114,7.28,7.28,0,0,1-4.8633,1.9,4.8509,4.8509,0,0,1-3.6113-1.52,5.6292,5.6292,0,0,1-1.4815-4.1045q0-1.4429.1524-3.1157a16.3223,16.3223,0,0,0,.1513-1.6718,1.3561,1.3561,0,0,0-.2656-.9122.83.83,0,0,0-.6465-.3042q-1.0635,0-2.8877,2.5459a37.4188,37.4188,0,0,0-3.6474,6.7261,54.6513,54.6513,0,0,0-2.9649,8.8159,12.0339,12.0339,0,0,1-1.8994,4.8643,4.432,4.432,0,0,1-3.4961,1.2158,4.149,4.149,0,0,1-4.0654-3.04q-1.1807-3.0381-1.1787-9.7276a61.8891,61.8891,0,0,1,2.8115-18.7724,5.7223,5.7223,0,0,1,2.2422-3.23,7.9109,7.9109,0,0,1,4.3711-1.0259,4.289,4.289,0,0,1,2.1269.38,1.5715,1.5715,0,0,1,.6084,1.4443,28.9605,28.9605,0,0,1-1.14,5.4717q-.7617,3.0411-1.2168,5.32a54.4926,54.4926,0,0,0-.76,5.624,43.1869,43.1869,0,0,1,5.6241-10.64,22.345,22.345,0,0,1,6.08-5.852,10.8314,10.8314,0,0,1,5.3955-1.7481,4.4185,4.4185,0,0,1,3.3828,1.2539,5.1971,5.1971,0,0,1,1.1778,3.6861,33.1862,33.1862,0,0,1-.836,5.4721h.6836A3.8877,3.8877,0,0,1,667.2031,203.4727Z" transform="translate(-5.2251 0.001)"/></g></g></svg>
